<svg xmlns="http://www.w3.org/2000/svg" viewBox="0 0 100 100" width="100" height="100">
  <!-- Background -->
  <rect width="100" height="100" rx="15" fill="#4f8cff" />
  
  <!-- Chart Lines -->
  <path d="M20,80 L40,50 L60,65 L80,30" stroke="white" stroke-width="4" fill="none" stroke-linecap="round" stroke-linejoin="round" />
  
  <!-- Points on the chart -->
  <circle cx="20" cy="80" r="4" fill="white" />
  <circle cx="40" cy="50" r="4" fill="white" />
  <circle cx="60" cy="65" r="4" fill="white" />
  <circle cx="80" cy="30" r="4" fill="white" />
  
  <!-- Trade symbol - Dollar sign -->
  <path d="M50,20 L50,80 M40,25 C40,25 45,20 50,20 C55,20 60,25 60,30 C60,35 55,40 50,40 C45,40 40,45 40,50 C40,55 45,60 50,60 C55,60 60,55 60,55" 
        stroke="white" stroke-width="4" fill="none" stroke-linecap="round" stroke-linejoin="round" opacity="0.7" />
</svg> 