<svg width="24" height="24" viewBox="0 0 24 24" fill="none" xmlns="http://www.w3.org/2000/svg">
  <circle cx="12" cy="12" r="11" fill="#10A37F"/>
  <path d="M18.0806 9.36996C18.2399 8.75335 18.2532 8.11107 18.1196 7.4881C17.986 6.86513 17.7086 6.27802 17.3071 5.77045C16.9056 5.26289 16.3909 4.85039 15.8007 4.56509C15.2106 4.27979 14.5611 4.1296 13.9039 4.12996C13.5112 4.12996 13.1226 4.17929 12.7466 4.27796C12.2399 3.67662 11.5806 3.22862 10.8372 2.98595C10.0939 2.74329 9.29658 2.71651 8.53792 2.90863C7.77926 3.10074 7.09193 3.50398 6.55929 4.07109C6.02665 4.6382 5.66925 5.34751 5.5266 6.11996C5.13593 6.33396 4.78127 6.61863 4.4786 6.96396C4.01331 7.48732 3.68061 8.11871 3.51089 8.80039C3.34117 9.48207 3.33979 10.1941 3.50693 10.8766C3.3476 11.4933 3.33393 12.1355 3.46754 12.7585C3.60115 13.3815 3.87855 13.9686 4.28003 14.4762C4.68152 14.9837 5.19627 15.3962 5.78639 15.6815C6.37651 15.9668 7.02605 16.1171 7.68327 16.1166C8.07593 16.1166 8.46727 16.0673 8.84327 15.9686C9.34993 16.57 9.99927 17.0179 10.7426 17.2606C11.486 17.5033 12.2833 17.53 13.0419 17.3379C13.8006 17.1458 14.4879 16.7426 15.0206 16.1755C15.5532 15.6084 15.9106 14.8991 16.0533 14.1266C16.4439 13.9126 16.8053 13.628 17.1199 13.2826C17.5852 12.7593 17.9179 12.1279 18.0876 11.4462C18.2574 10.7646 18.2587 10.0526 18.0916 9.37063L18.0806 9.36996ZM7.68327 15.0073C7.4026 15.0073 7.1266 14.9526 6.86727 14.8466L7.1266 14.7033C7.27327 14.6033 7.32993 14.4166 7.27527 14.25C7.2206 14.0826 7.04993 13.9833 6.88327 14.0066C6.7166 14.03 6.5726 14.1553 6.51993 14.3166L6.38327 14.604C5.93327 14.3166 5.5786 13.9233 5.3586 13.4566C5.13793 12.9899 5.06193 12.4713 5.13993 11.9673C5.2166 11.4633 5.4466 10.9973 5.79727 10.624C6.14793 10.2506 6.60527 9.9893 7.1006 9.8746L7.30727 10.1126C7.41193 10.2373 7.58127 10.2633 7.71527 10.1613C7.84927 10.0593 7.8746 9.88996 7.76993 9.75196L7.5826 9.52996C7.92327 9.38463 8.2946 9.31863 8.66927 9.33596C9.04393 9.35329 9.4066 9.45463 9.73327 9.63063C10.0599 9.80663 10.3386 10.054 10.5493 10.358C10.7599 10.6626 10.8939 11.0126 10.9399 11.382L10.6733 11.3966C10.5053 11.404 10.3693 11.5393 10.3493 11.7073C10.3293 11.8753 10.4546 12.024 10.6199 12.0506C10.7853 12.0773 10.9466 11.9693 10.9813 11.8066L11.0693 11.5413C11.2866 11.9413 11.3933 12.3866 11.3853 12.838C11.3773 13.2893 11.2539 13.7306 11.0259 14.124C10.7979 14.5166 10.4726 14.848 10.0833 15.0826C9.69393 15.3173 9.25393 15.446 8.7986 15.458C8.34327 15.47 7.89527 15.3653 7.48993 15.154L7.73593 14.93C7.85193 14.8153 7.8506 14.6353 7.7306 14.52C7.6106 14.4053 7.4306 14.4053 7.31327 14.5253C7.19593 14.6453 7.19593 14.8253 7.31593 14.9413L7.5626 15.1653C7.27127 15.0333 7.00993 14.8513 6.79193 14.6273C6.57327 14.4033 6.4026 14.142 6.2926 13.8573L6.52527 13.7166C6.67993 13.6193 6.73727 13.434 6.68393 13.2673C6.63127 13.1006 6.46127 13.0006 6.2946 13.024C6.12727 13.0473 5.9866 13.1726 5.93327 13.3333L5.7546 13.7886C5.69407 13.5945 5.65691 13.3944 5.64393 13.192C5.63593 12.9366 5.6746 12.682 5.75727 12.4406C5.83993 12.1993 5.96527 11.976 6.12727 11.7806C6.28927 11.5853 6.48527 11.4206 6.70927 11.3L6.8926 11.5226C6.97327 11.6346 7.12327 11.6753 7.24993 11.6226C7.3766 11.57 7.45527 11.4353 7.43993 11.3C7.4246 11.1646 7.3226 11.05 7.18927 11.016L6.8746 10.938C7.04327 10.8386 7.22393 10.77 7.41527 10.73C7.60727 10.692 7.8026 10.688 7.9966 10.722C8.1906 10.7553 8.37927 10.8233 8.5506 10.924C8.72193 11.024 8.87327 11.1546 8.9986 11.31L8.74127 11.4553C8.59793 11.5526 8.5366 11.7286 8.58593 11.8953C8.63593 12.062 8.80593 12.1686 8.9726 12.1533C9.13927 12.138 9.2846 12.018 9.3446 11.8573L9.53327 11.4146C9.8626 11.88 10.0126 12.4346 9.96393 12.99C9.91527 13.5453 9.67527 14.068 9.27927 14.4646C8.8826 14.862 8.35926 15.1066 7.80127 15.158C7.76127 15.1613 7.72193 15.1613 7.68127 15.1613L7.68327 15.0073ZM16.6613 12.7766C16.3613 13.1386 15.974 13.4186 15.5353 13.59L15.2786 13.4433C15.132 13.3433 14.9513 13.3866 14.8553 13.5393C14.7599 13.692 14.8013 13.8866 14.9553 13.9806C15.1086 14.0746 15.3033 14.0353 15.3973 13.882L15.5779 13.5253C16.0279 13.81 16.3773 14.2033 16.5959 14.6686C16.8146 15.134 16.8906 15.6526 16.8139 16.1566C16.7373 16.6606 16.5093 17.1273 16.1599 17.5006C15.8106 17.874 15.354 18.1353 14.8593 18.25L14.6526 18.0126C14.548 17.8879 14.3786 17.8626 14.2446 17.9646C14.1106 18.0666 14.0853 18.2359 14.1886 18.3733C14.292 18.5106 14.4613 18.536 14.5959 18.4333L14.7833 18.2553C14.4439 18.4066 14.0699 18.4766 13.6946 18.4593C13.3193 18.442 12.9566 18.3366 12.6313 18.1606C12.3059 17.9846 12.0259 17.7366 11.8126 17.4353C11.5993 17.1333 11.4646 16.784 11.4179 16.4153L11.6846 16.4006C11.8533 16.3933 11.9886 16.2586 12.0086 16.0906C12.0286 15.9226 11.9033 15.774 11.7379 15.7473C11.5726 15.7206 11.4113 15.8286 11.3766 15.9913L11.2886 16.2566C11.0699 15.8573 10.9633 15.4133 10.9713 14.962C10.9793 14.5106 11.1026 14.0693 11.3306 13.676C11.5586 13.2826 11.8839 12.9513 12.2733 12.7166C12.6626 12.482 13.1026 12.3533 13.5579 12.3413C14.0133 12.3293 14.4613 12.434 14.8666 12.6453L14.6206 12.8693C14.5046 12.984 14.5059 13.164 14.6253 13.2786C14.7453 13.394 14.9253 13.394 15.0426 13.274C15.1599 13.154 15.1599 12.974 15.0399 12.858L14.7946 12.6333C15.0846 12.7706 15.344 12.9526 15.5613 13.1766C15.7786 13.4006 15.9493 13.662 16.0593 13.9453L15.8266 14.0886C15.6719 14.1866 15.6146 14.3706 15.6679 14.5373C15.7213 14.704 15.8906 14.804 16.0566 14.7806C16.2239 14.7573 16.3646 14.6333 16.4179 14.4726L16.5966 14.0173C16.6579 14.212 16.6953 14.4126 16.7079 14.616C16.7153 14.8713 16.6766 15.126 16.5939 15.3673C16.5113 15.6086 16.3859 15.832 16.2239 16.0273C16.0619 16.2226 15.8659 16.3873 15.6426 16.508L15.4593 16.2853C15.3699 16.1733 15.2193 16.1333 15.0926 16.1853C14.9666 16.238 14.8879 16.3726 14.9033 16.508C14.9186 16.6433 15.0206 16.758 15.1539 16.792L15.4686 16.87C15.3013 16.9686 15.1206 17.038 14.9293 17.0773C14.7366 17.116 14.542 17.12 14.348 17.0866C14.154 17.0533 13.9653 16.9853 13.794 16.884C13.6226 16.784 13.4713 16.6533 13.346 16.498L13.6033 16.3526C13.7466 16.2546 13.8073 16.0793 13.758 15.9126C13.708 15.746 13.538 15.6393 13.3726 15.6546C13.2073 15.67 13.0613 15.7893 13.0013 15.95L12.8113 16.3933C12.4833 15.9273 12.334 15.3733 12.3813 14.8173C12.4286 14.262 12.6686 13.7386 13.0646 13.3426C13.4606 12.9453 13.984 12.7006 14.5426 12.6493C14.5826 12.6453 14.622 12.6453 14.6626 12.6453C14.9426 12.6453 15.2193 12.7 15.4786 12.806L15.22 12.9493C15.0733 13.05 15.0146 13.2366 15.0693 13.4033C15.124 13.57 15.2946 13.67 15.4613 13.6466C15.628 13.6233 15.772 13.498 15.8253 13.3366L15.962 13.0493C16.412 13.3366 16.7666 13.73 16.9866 14.1966C17.2073 14.6633 17.2833 15.182 17.2053 15.686C17.1273 16.19 16.8973 16.6573 16.5473 17.0306C16.1966 17.404 15.7393 17.6653 15.244 17.78L15.0373 17.542C14.9339 17.4173 14.7653 17.3913 14.6313 17.4933C14.4973 17.5953 14.4706 17.7646 14.5753 17.9026C14.6793 18.0406 14.848 18.0673 14.9826 17.966L15.158 17.7866C14.82 17.932 14.4513 18 14.0766 17.9826C13.7026 17.9653 13.3386 17.864 13.0106 17.692C12.6833 17.52 12.4006 17.2746 12.188 16.9733C11.9753 16.6713 11.8413 16.3213 11.7946 15.9533H11.7933L12.06 15.9386C12.228 15.9313 12.3639 15.7966 12.3839 15.6286C12.4039 15.4606 12.2786 15.3113 12.1133 15.2846C11.9479 15.258 11.7866 15.366 11.7519 15.5286L11.664 15.794C11.4466 15.394 11.34 14.9493 11.348 14.4973C11.356 14.046 11.4793 13.6046 11.7073 13.2113C11.9353 12.818 12.2606 12.4866 12.65 12.252C13.0393 12.0173 13.4793 11.8886 13.9346 11.8766C14.39 11.8646 14.838 11.9693 15.2433 12.1806L14.9973 12.4046C14.8813 12.5193 14.8826 12.6993 15.0019 12.814C15.1219 12.9293 15.3019 12.9293 15.4193 12.8093C15.5366 12.6893 15.5366 12.5093 15.4166 12.3933L15.1706 12.1686C15.4606 12.3073 15.7206 12.4893 15.9386 12.7133C16.1573 12.9373 16.328 13.1986 16.4386 13.4833L16.206 13.6266C16.0513 13.725 15.9933 13.9093 16.0466 14.076C16.1 14.2426 16.2693 14.3426 16.4353 14.3193C16.5959 14.294 16.7433 14.174 16.7966 14.0133L16.9773 13.5513C17.0386 13.7466 17.0766 13.9466 17.0893 14.1493C17.0973 14.4046 17.0593 14.6593 16.9766 14.9006C16.8939 15.142 16.7686 15.366 16.6066 15.562C16.4446 15.7573 16.2486 15.922 16.0246 16.0426L15.8413 15.82C15.7519 15.708 15.6013 15.668 15.4753 15.7206C15.3486 15.7726 15.2699 15.9073 15.2853 16.0426C15.3006 16.178 15.4026 16.2926 15.5359 16.3266L15.8506 16.4046C15.6833 16.5033 15.5033 16.5726 15.3119 16.612C15.1206 16.6506 14.9259 16.6546 14.7319 16.6213C14.538 16.588 14.3493 16.52 14.178 16.4186C14.006 16.3173 13.8553 16.1866 13.73 16.0313H13.7313L13.9886 15.8873C14.1326 15.7893 14.1933 15.6146 14.144 15.448C14.094 15.282 13.9239 15.1753 13.7579 15.1906C13.5919 15.206 13.4453 15.3253 13.3853 15.486L13.2013 15.9206C12.8706 15.4553 12.7213 14.9006 12.7673 14.3453C12.8133 13.79 13.0533 13.2673 13.4493 12.8706C13.8453 12.4733 14.368 12.2286 14.926 12.1766C15.1493 12.1546 15.3733 12.1686 15.592 12.2186C15.8106 12.2686 16.0186 12.3513 16.2146 12.468L15.9826 12.5953C15.8373 12.6953 15.7786 12.882 15.8333 13.0486C15.888 13.2153 16.0586 13.3153 16.2253 13.292C16.392 13.2686 16.536 13.1433 16.5893 12.982L16.664 12.8186C16.8946 12.9766 17.0926 13.1713 17.2553 13.394C17.412 13.6066 17.532 13.844 17.6133 14.096C17.778 14.59 17.778 15.1213 17.6146 15.6153C17.452 16.11 17.1333 16.5406 16.7053 16.848C16.278 17.1546 15.764 17.3226 15.2346 17.3326C14.7053 17.3426 14.186 17.1933 13.7493 16.9026C13.3126 16.612 12.9766 16.1953 12.7953 15.7066C12.6133 15.218 12.5953 14.6833 12.744 14.184C12.8926 13.6846 13.2006 13.246 13.6246 12.928C14.048 12.61 14.562 12.4286 15.0913 12.4153C15.6206 12.402 16.1406 12.5573 16.5793 12.8533C16.6413 12.8966 16.6706 12.9053 16.6613 12.7766Z" fill="white"/>
</svg> 